<?xml version="1.0" standalone="no"?>
<!DOCTYPE svg PUBLIC "-//W3C//DTD SVG 20010904//EN"
 "http://www.w3.org/TR/2001/REC-SVG-20010904/DTD/svg10.dtd">
<svg version="1.0" xmlns="http://www.w3.org/2000/svg"
 width="288.000000pt" height="244.000000pt" viewBox="0 0 288.000000 244.000000"
 preserveAspectRatio="xMidYMid meet">
<metadata>
Created by potrace 1.16, written by Peter Selinger 2001-2019
</metadata>
<g transform="translate(0.000000,244.000000) scale(0.100000,-0.100000)"
fill="#000000" stroke="none">
<path d="M1730 1835 c-16 -19 -5 -34 12 -17 18 18 36 14 49 -10 11 -21 11 -22
-5 -9 -13 11 -20 11 -29 2 -9 -9 -7 -13 10 -17 20 -5 21 -9 11 -28 -7 -11 -13
-37 -13 -56 0 -25 -5 -36 -18 -38 -22 -4 -34 25 -18 49 6 11 7 19 2 19 -18 0
-29 -33 -21 -60 5 -17 2 -39 -9 -63 l-16 -37 -177 0 c-186 0 -237 -13 -95 -25
45 -3 118 -11 162 -16 44 -6 101 -11 128 -10 56 0 61 -16 22 -73 -14 -20 -25
-43 -25 -51 0 -8 -4 -15 -10 -15 -5 0 -10 -6 -10 -14 0 -15 -62 -56 -84 -56
-8 0 -21 -11 -30 -25 -10 -14 -29 -31 -44 -37 -15 -7 -34 -19 -42 -28 -22 -24
-96 -54 -116 -46 -42 16 15 117 94 167 53 34 53 34 -15 14 -58 -17 -117 -74
-127 -122 -4 -18 -1 -48 8 -73 14 -40 13 -43 -5 -47 -22 -6 -22 -8 -9 -33 12
-22 -7 -40 -21 -19 -6 10 -11 6 -18 -14 -17 -45 -13 -60 24 -90 19 -15 35 -33
35 -39 0 -28 61 -137 80 -143 34 -11 50 -35 50 -75 0 -31 -7 -46 -33 -72 -33
-33 -40 -67 -24 -113 10 -30 107 -90 185 -116 90 -29 93 -32 85 -87 -9 -68
-16 -73 -96 -71 -126 4 -254 88 -207 135 7 7 -5 21 -35 44 -49 37 -108 103
-144 163 -12 20 -27 37 -32 37 -12 0 -11 -96 2 -145 14 -53 80 -165 96 -165
18 0 16 10 -8 45 -37 55 -70 126 -66 143 2 11 12 -1 26 -33 38 -85 97 -153
179 -206 42 -27 82 -47 89 -45 7 3 13 1 13 -4 0 -5 26 -16 58 -25 86 -24 113
-36 149 -68 l33 -29 1 48 c0 27 4 67 8 89 7 33 9 26 10 -49 l1 -88 35 31 c23
20 67 40 128 59 191 60 288 137 354 282 14 30 27 49 30 43 8 -21 -15 -77 -52
-129 -38 -53 -42 -64 -22 -64 15 0 72 93 92 151 17 47 20 159 5 159 -5 0 -16
-13 -24 -28 -25 -48 -101 -135 -150 -171 -34 -26 -43 -38 -35 -47 6 -7 9 -23
7 -36 -5 -37 -122 -91 -207 -96 -85 -5 -101 8 -101 78 0 51 15 70 56 70 10 0
54 18 99 40 91 44 180 128 225 212 l25 47 -30 31 c-16 16 -32 30 -36 30 -15 0
-43 -57 -41 -84 2 -22 -7 -37 -38 -66 -22 -20 -40 -40 -40 -43 0 -37 -176
-114 -181 -79 -7 48 -6 132 1 137 16 10 12 57 -7 77 -14 15 -15 23 -6 38 11
16 8 19 -20 23 -18 3 -54 6 -82 7 -57 1 -104 26 -136 71 -18 26 -20 35 -10 55
6 14 11 38 11 54 0 22 5 30 18 30 19 0 269 -77 352 -109 64 -24 77 -26 58 -8
-22 22 -97 53 -235 98 -73 24 -133 48 -133 54 0 5 16 21 34 35 26 19 32 29 25
41 -10 19 26 73 42 64 5 -4 9 3 9 14 0 12 6 21 13 21 6 0 27 10 46 21 30 18
33 22 18 31 -23 12 -21 20 8 52 25 27 72 35 92 15 8 -8 13 -7 18 1 11 17 -13
36 -70 55 -113 37 -126 76 -36 106 30 11 75 32 100 48 32 20 64 30 107 34 98
10 109 21 24 27 l-75 5 3 28 c9 73 -49 139 -150 173 -33 11 -52 24 -58 39 -13
35 -58 47 -80 20z m177 -111 c69 -40 96 -88 77 -138 -5 -13 -22 -16 -86 -16
-77 0 -79 -1 -76 -22 3 -21 8 -23 51 -21 26 2 47 -1 47 -6 0 -9 -90 -51 -109
-51 -6 0 -14 -18 -17 -40 -4 -22 -10 -40 -15 -40 -14 0 -11 34 7 86 10 30 13
60 9 83 -10 57 -5 177 9 200 8 12 42 1 103 -35z"/>
</g>
</svg>
